<svg xmlns="http://www.w3.org/2000/svg" viewBox="0 0 500 500"><g id="freepik--background-complete--inject-60"><path d="M81.43,299.69a29,29,0,1,0-13.3-31.38A28.94,28.94,0,0,0,81.43,299.69Z" style="fill:#ebebeb"></path><path d="M87.52,271.64a8.83,8.83,0,1,0,8.72-8.93A8.82,8.82,0,0,0,87.52,271.64Z" style="fill:#fff"></path><path d="M81.39,296.05l0,3.64a29,29,0,0,0,30.49-.38l0-3.63a15.25,15.25,0,1,0-30.49.37Z" style="fill:#fff"></path><path d="M403.84,182.16a19,19,0,1,0-8.71-20.55A18.8,18.8,0,0,0,403.84,182.16Z" style="fill:#ebebeb"></path><path d="M407.83,163.79a5.78,5.78,0,1,0,5.71-5.85A5.78,5.78,0,0,0,407.83,163.79Z" style="fill:#fff"></path><path d="M403.81,179.78l0,2.38a19,19,0,0,0,20-.25l0-2.37a10,10,0,1,0-20,.24Z" style="fill:#fff"></path><path d="M214.91,134.15H88.27V47.51H214.91Zm-125.64-1H213.91V48.51H89.27Z" style="fill:#ebebeb"></path><path d="M98.17,53.1a2.52,2.52,0,1,1-2.52-2.53A2.52,2.52,0,0,1,98.17,53.1Z" style="fill:#a6a6a6"></path><path d="M108.46,53.1a2.52,2.52,0,1,1-2.52-2.53A2.52,2.52,0,0,1,108.46,53.1Z" style="fill:#ebebeb"></path><path d="M118.75,53.1a2.52,2.52,0,1,1-2.52-2.53A2.52,2.52,0,0,1,118.75,53.1Z" style="fill:#1E40AF"></path><rect x="88.77" y="57.53" width="125.64" height="1" style="fill:#ebebeb"></rect><rect x="63.53" y="155.5" width="66.59" height="42.23" transform="translate(-22.98 14.7) rotate(-7.77)" style="fill:#ebebeb"></rect><path d="M127,151.2c-2.32,2.91-4.7,5.72-7,8.6s-4.75,5.64-7.15,8.44-5,5.82-7.52,8.71l-.23.27q-3.33,3.83-6.7,7.63l-.33.37-.41-.26-8.49-5.58a2.49,2.49,0,0,1-.3-.19Q84,176,79.2,172.81q-4.56-3.08-9.13-6.22c-3-2.14-6.08-4.21-9.09-6.39,3.13,1.79,6.23,3.71,9.34,5.56s6.21,3.8,9.3,5.74q5.16,3.21,10.32,6.53h0l7.73,5c2-2.28,4.06-4.58,6.11-6.84,0,0,0,0,0,0,2.73-3,5.46-6.06,8.21-9.05q3.69-4,7.41-8C122,156.44,124.42,153.77,127,151.2Z" style="fill:#fff"></path><path d="M90.17,179a.5.5,0,0,1-.07.08c-.3.34-.61.69-.92,1-1.46,1.63-3,3.2-4.52,4.73-1.88,1.89-3.82,3.72-5.77,5.54s-4,3.58-6,5.31-4.1,3.43-6.25,5c1.76-2,3.62-4,5.5-5.83s3.84-3.72,5.78-5.54,4-3.59,6-5.32c1.62-1.38,3.27-2.75,5-4.05l1.19-.9Z" style="fill:#fff"></path><path d="M132.32,191.72c-2.5-1-4.95-2.05-7.36-3.17s-4.81-2.31-7.19-3.51-4.73-2.48-7-3.8c-1.89-1.06-3.77-2.16-5.6-3.33l-1.17-.75s-.06,0-.09-.06l.1,0,1.39.56c2,.8,3.93,1.67,5.87,2.57,2.43,1.12,4.81,2.31,7.18,3.52s4.73,2.47,7,3.79S130.08,190.24,132.32,191.72Z" style="fill:#fff"></path><rect x="346.54" y="240.82" width="66.9" height="105.49" transform="translate(6.79 595.72) rotate(-76.68)" style="fill:#ebebeb"></rect><path d="M439,273.17c-5.08,3-10.21,5.78-15.31,8.69s-10.24,5.64-15.37,8.41q-8,4.35-16.08,8.58l-.49.29-14.25,7.46-.7.34-.46-.62q-4.71-6.52-9.37-13.07a5.48,5.48,0,0,1-.34-.46q-5.29-7.4-10.54-14.9c-3.33-4.75-6.65-9.57-10-14.39s-6.57-9.68-9.78-14.63c3.6,4.44,7.09,9,10.63,13.55s7,9.15,10.48,13.78q5.79,7.68,11.54,15.54s0,0,0,0q4.31,5.85,8.6,11.72c4.3-2.21,8.62-4.45,12.93-6.62,0,0,0,0,0,0q8.64-4.41,17.29-8.72,7.74-3.84,15.52-7.6C428.63,278.06,433.81,275.52,439,273.17Z" style="fill:#fff"></path><path d="M368.82,293.25c-.05,0-.09.06-.15.08-.64.34-1.29.67-1.94,1-3.09,1.57-6.22,3-9.38,4.41-3.86,1.72-7.77,3.32-11.69,4.9s-7.87,3-11.86,4.44-8,2.74-12.1,3.87c3.76-2,7.6-3.77,11.45-5.48s7.79-3.31,11.7-4.9,7.88-3.05,11.88-4.45c3.17-1.11,6.39-2.19,9.65-3.15.75-.23,1.5-.44,2.27-.65Z" style="fill:#fff"></path><path d="M423.86,336.12c-3.15-2.84-6.15-5.85-9.08-8.89s-5.79-6.15-8.63-9.28-5.58-6.35-8.25-9.62c-2.19-2.66-4.34-5.35-6.38-8.12-.45-.6-.88-1.19-1.31-1.78a1.7,1.7,0,0,1-.1-.14.75.75,0,0,0,.14.12L392,300c2.48,2.32,4.86,4.72,7.22,7.15,2.94,3,5.78,6.15,8.6,9.3s5.58,6.35,8.26,9.62S421.39,332.66,423.86,336.12Z" style="fill:#fff"></path><rect x="355.97" y="38.96" width="60.61" height="38.44" style="fill:#ebebeb"></rect><path d="M416.58,39c-2.45,2.34-4.94,4.58-7.41,6.89s-5,4.51-7.48,6.73-5.24,4.64-7.86,6.93l-.23.22-7,6.06-.35.28-.34-.28-7-6.07-.24-.21q-3.95-3.43-7.87-6.94c-2.49-2.21-5-4.47-7.47-6.72s-5-4.55-7.41-6.89c2.6,2,5.16,4.11,7.74,6.17s5.13,4.18,7.68,6.32q4.26,3.52,8.51,7.15s0,0,0,0c2.12,1.79,4.24,3.6,6.36,5.41,2.11-1.81,4.23-3.63,6.35-5.41,0,0,0,0,0,0q4.25-3.6,8.51-7.16,3.82-3.18,7.67-6.3C411.42,43.07,414,41,416.58,39Z" style="fill:#fff"></path><path d="M380,59.48l-.07.06q-.48.42-1,.81c-1.52,1.29-3.07,2.52-4.66,3.71-1.93,1.47-3.9,2.88-5.89,4.29s-4,2.73-6,4.05-4.11,2.59-6.25,3.76c1.84-1.61,3.75-3.11,5.68-4.57s3.91-2.89,5.88-4.29,4-2.75,6.06-4.06c1.63-1.05,3.28-2.08,5-3l1.18-.67Z" style="fill:#fff"></path><path d="M416.43,76.16c-2.14-1.17-4.21-2.45-6.25-3.76s-4.05-2.68-6.05-4.05-4-2.82-5.89-4.29c-1.58-1.19-3.13-2.41-4.64-3.7l-1-.82s0,0-.07-.06l.09.05,1.18.67c1.7,1,3.34,2,5,3,2.05,1.31,4.05,2.68,6.05,4.06s3.95,2.81,5.88,4.29S414.59,74.55,416.43,76.16Z" style="fill:#fff"></path></g><g id="freepik--Device--inject-60"><path d="M331.37,54.55H168.2a16.65,16.65,0,0,0-16.51,16.81V407.25a16.67,16.67,0,0,0,16.51,16.81H331.37a16.68,16.68,0,0,0,16.52-16.81V71.36A16.67,16.67,0,0,0,331.37,54.55Zm6.19,342.31c0,8.84-6.62,16-14.78,16h-146c-8.18,0-14.8-7.16-14.8-16V84.09c0-18,6.62-18.89,14.8-18.89h29.25c1.7,0,3.09,1.93,3.09,4.32v1c0,5.61,3.07,5.62,6.83,5.62h67.62c3.8,0,6.85,0,6.85-5.62v-1c0-2.39,1.37-4.32,3.1-4.32h29.24c8.16,0,14.78,2.39,14.78,18.89Z" style="fill:#263238"></path><path d="M337.57,84.36V397.14c0,8.84-6.62,16-14.78,16h-146c-8.18,0-14.8-7.15-14.8-16V84.36c0-18,6.62-18.88,14.8-18.88h29.25c1.7,0,3.09,1.93,3.09,4.32v1c0,5.61,3.07,5.63,6.83,5.63H283.6c3.8,0,6.85,0,6.85-5.63v-1c0-2.39,1.37-4.32,3.1-4.32h29.24C331,65.48,337.57,67.87,337.57,84.36Z" style="fill:#fff"></path><path d="M337.57,84.37v28.37H162V84.37c0-18,6.62-18.89,14.8-18.89h29.25c1.7,0,3.09,1.93,3.09,4.32v1c0,5.6,3.07,5.62,6.83,5.62H283.6c3.8,0,6.85,0,6.85-5.62v-1c0-2.39,1.37-4.32,3.1-4.32h29.24C331,65.48,337.57,67.87,337.57,84.37Z" style="fill:#1E40AF"></path><path d="M259,69.18H240.56A1.14,1.14,0,0,1,239.43,68h0a1.14,1.14,0,0,1,1.13-1.14H259A1.14,1.14,0,0,1,260.15,68h0A1.14,1.14,0,0,1,259,69.18Z" style="fill:#fff"></path><g id="freepik--u5Zjqx--inject-60"><path d="M201,72.23c-.09.09-.19.18-.28.28a1.21,1.21,0,0,0-.16.16,3.85,3.85,0,0,0-5.45,0l-.15-.16-.28-.28h0l0,0,.36-.31a4,4,0,0,1,.82-.53A4.32,4.32,0,0,1,197,71l.55-.07H198l.37,0a4.29,4.29,0,0,1,1,.24,3.26,3.26,0,0,1,.68.32,4.18,4.18,0,0,1,.65.45l.3.27Z" style="fill:#fff"></path><path d="M196,73.56l-.45-.45a3.22,3.22,0,0,1,4.55,0l-.45.44a2.55,2.55,0,0,0-1.83-.75A2.51,2.51,0,0,0,196,73.56Z" style="fill:#fff"></path><path d="M199.21,74l-.44.44a1.31,1.31,0,0,0-.94-.38,1.27,1.27,0,0,0-.93.39l-.45-.45A1.94,1.94,0,0,1,199.21,74Z" style="fill:#fff"></path><path d="M198.24,74.85a.41.41,0,1,1-.41-.4A.4.4,0,0,1,198.24,74.85Z" style="fill:#fff"></path></g><path d="M173.45,73.08a1.17,1.17,0,1,1,1.16,1.16A1.16,1.16,0,0,1,173.45,73.08Z" style="fill:#fff"></path><path d="M177.12,73.08a1.16,1.16,0,1,1,1.16,1.16A1.16,1.16,0,0,1,177.12,73.08Z" style="fill:#fff"></path><path d="M180.78,73.08a1.17,1.17,0,1,1,1.16,1.16A1.16,1.16,0,0,1,180.78,73.08Z" style="fill:#fff"></path><path d="M184.44,73.08a1.17,1.17,0,1,1,1.17,1.16A1.17,1.17,0,0,1,184.44,73.08Z" style="fill:#fff"></path><path d="M188.11,73.08a1.17,1.17,0,1,1,1.16,1.16A1.16,1.16,0,0,1,188.11,73.08Z" style="fill:#fff"></path><path d="M324.4,75.62h-9.47V71.23h9.47Zm-9-.48h8.5V71.71h-8.5Z" style="fill:#fff"></path><rect x="315.71" y="71.98" width="6.11" height="2.9" style="fill:#fff"></rect><rect x="324.4" y="72.25" width="0.84" height="2.35" style="fill:#fff"></rect><polygon points="178.64 101.89 173.45 97.03 178.64 92.17 179.44 93.03 175.17 97.03 179.44 101.03 178.64 101.89" style="fill:#fff"></polygon><path d="M321.65,102.24h-3.5V101a.28.28,0,0,0-.15-.24,3.64,3.64,0,0,1-.39-.23.29.29,0,0,0-.3,0l-1.05.61-1.75-3,1.06-.61a.3.3,0,0,0,.13-.26c0-.07,0-.15,0-.22s0-.15,0-.22a.32.32,0,0,0-.13-.27l-1.06-.6,1.75-3,1.05.61a.28.28,0,0,0,.29,0l.4-.22a.29.29,0,0,0,.15-.25V91.82h3.5V93a.28.28,0,0,0,.15.25,3.61,3.61,0,0,1,.39.22.3.3,0,0,0,.3,0l1.05-.61,1.75,3-1.06.61a.26.26,0,0,0-.13.26v.44a.26.26,0,0,0,.13.26l1.06.61-1.75,3-1.06-.61a.28.28,0,0,0-.29,0,3.64,3.64,0,0,1-.39.23.28.28,0,0,0-.15.24Zm-2.75-.75h2V101a1,1,0,0,1,.56-.91l.32-.18a1,1,0,0,1,1.08,0l.4.23,1-1.73-.41-.23a1,1,0,0,1-.5-1v-.37a1,1,0,0,1,.51-.94l.4-.24-1-1.73-.4.24a1,1,0,0,1-1.08,0,1.65,1.65,0,0,0-.32-.18,1,1,0,0,1-.56-.92v-.46h-2V93a1,1,0,0,1-.57.92,2.58,2.58,0,0,0-.32.18,1,1,0,0,1-1.07,0l-.41-.24-1,1.73.4.24a1,1,0,0,1,.51.95v.37a1,1,0,0,1-.51.94l-.4.23,1,1.73.41-.23a1,1,0,0,1,1.08,0,3.37,3.37,0,0,0,.32.19,1,1,0,0,1,.56.91Zm1-1.84A2.63,2.63,0,1,1,322.52,97,2.62,2.62,0,0,1,319.9,99.65Zm0-4.5A1.88,1.88,0,1,0,321.77,97,1.88,1.88,0,0,0,319.9,95.15Z" style="fill:#fff"></path><polygon points="312.43 301.68 187.15 301.68 187.15 195.7 249.78 155.92 312.43 195.7 312.43 301.68" style="fill:#1E40AF"></polygon><polygon points="312.43 301.68 187.15 301.68 187.15 195.7 249.78 155.92 312.43 195.7 312.43 301.68" style="opacity:0.2"></polygon><polygon points="305.37 293.57 194.21 293.57 194.21 150.88 276.75 150.88 305.37 178.07 305.37 293.57" style="fill:#ebebeb"></polygon><polygon points="276.75 150.88 305.37 178.07 276.75 178.07 276.75 150.88" style="fill:#dbdbdb"></polygon><rect x="205.06" y="174.82" width="61.8" height="3.66" transform="translate(471.92 353.31) rotate(180)" style="fill:#dbdbdb"></rect><rect x="205.06" y="184.07" width="61.8" height="3.66" transform="translate(471.92 371.81) rotate(180)" style="fill:#dbdbdb"></rect><rect x="205.06" y="193.32" width="61.8" height="3.66" transform="translate(471.92 390.3) rotate(180)" style="fill:#dbdbdb"></rect><rect x="205.06" y="202.57" width="90.55" height="3.66" transform="translate(500.66 408.8) rotate(180)" style="fill:#dbdbdb"></rect><rect x="205.06" y="211.81" width="90.55" height="3.66" transform="translate(500.66 427.29) rotate(180)" style="fill:#dbdbdb"></rect><rect x="205.06" y="221.06" width="90.55" height="3.66" transform="translate(500.66 445.79) rotate(180)" style="fill:#dbdbdb"></rect><rect x="205.06" y="230.31" width="90.55" height="3.66" transform="translate(500.66 464.29) rotate(180)" style="fill:#dbdbdb"></rect><rect x="205.06" y="239.56" width="90.55" height="3.66" transform="translate(500.66 482.78) rotate(180)" style="fill:#dbdbdb"></rect><rect x="205.06" y="248.81" width="90.55" height="3.66" transform="translate(500.66 501.28) rotate(180)" style="fill:#dbdbdb"></rect><rect x="205.06" y="258.06" width="90.55" height="3.66" transform="translate(500.66 519.77) rotate(180)" style="fill:#dbdbdb"></rect><rect x="205.06" y="267.3" width="90.55" height="3.66" transform="translate(500.66 538.27) rotate(180)" style="fill:#dbdbdb"></rect><rect x="205.06" y="276.55" width="90.55" height="3.66" transform="translate(500.66 556.77) rotate(180)" style="fill:#dbdbdb"></rect><path d="M312.43,222.23v79.45H187.15V222.23c5.38,3,10.67,6.24,16,9.36s10.61,6.36,15.88,9.6c5.87,3.57,11.74,7.21,17.59,10.87l.19-.11c-.06,0-.09.1-.15.13q6.57,4.09,13.15,8.23c4.37-2.75,8.75-5.52,13.13-8.23-.05,0-.09-.09-.15-.13a.87.87,0,0,0,.19.1q8.77-5.48,17.59-10.88,7.9-4.83,15.86-9.58C301.77,228.47,307.05,225.27,312.43,222.23Z" style="fill:#1E40AF"></path><g style="opacity:0.2"><path d="M312.43,222.23c-5.06,3.55-10.21,7-15.31,10.46s-10.29,6.84-15.47,10.23q-8.1,5.31-16.23,10.52l-.49.34L250.5,263l-.72.43-.69-.43q-7.23-4.61-14.42-9.22l-.5-.32q-8.16-5.22-16.26-10.54c-5.16-3.37-10.31-6.79-15.45-10.21s-10.25-6.91-15.31-10.46c5.38,3,10.67,6.24,16,9.36s10.61,6.36,15.88,9.6c5.87,3.57,11.74,7.21,17.59,10.87l0,0q6.57,4.09,13.15,8.23c4.37-2.75,8.75-5.52,13.13-8.23,0,0,0,0,0,0q8.77-5.48,17.59-10.88,7.9-4.83,15.86-9.58C301.77,228.47,307.05,225.27,312.43,222.23Z"></path><path d="M236.8,252c-.06,0-.09.1-.15.13q-1,.85-2,1.68c-3.14,2.65-6.36,5.19-9.63,7.66-4,3-8.07,6-12.17,8.86s-8.26,5.66-12.49,8.37-8.51,5.36-12.93,7.79c3.8-3.33,7.75-6.44,11.74-9.46s8.09-6,12.17-8.87,8.28-5.68,12.51-8.39c3.37-2.16,6.8-4.29,10.3-6.28.8-.47,1.61-.92,2.44-1.38Z"></path><path d="M312.13,286.44c-4.42-2.43-8.71-5.08-12.92-7.79s-8.38-5.53-12.51-8.37-8.19-5.82-12.18-8.86c-3.25-2.47-6.47-5-9.59-7.64l-2-1.7c-.05,0-.09-.09-.15-.13a.87.87,0,0,0,.19.1c.83.47,1.64.92,2.45,1.39,3.5,2,6.9,4.12,10.29,6.28,4.23,2.71,8.37,5.53,12.49,8.39s8.18,5.82,12.17,8.87S308.33,283.11,312.13,286.44Z"></path></g><rect x="187.15" y="330.64" width="18.26" height="18.26" style="fill:#ebebeb"></rect><rect x="213.83" y="330.64" width="18.26" height="18.26" style="fill:#ebebeb"></rect><rect x="240.51" y="330.64" width="18.26" height="18.26" style="fill:#ebebeb"></rect><rect x="267.19" y="330.64" width="18.26" height="18.26" style="fill:#ebebeb"></rect><rect x="293.88" y="330.64" width="18.26" height="18.26" style="fill:#ebebeb"></rect><rect x="186.59" y="358.52" width="124.98" height="1.97" style="fill:#ebebeb"></rect><rect x="186.59" y="363.72" width="124.98" height="1.97" style="fill:#ebebeb"></rect><rect x="186.59" y="368.93" width="124.98" height="1.97" style="fill:#ebebeb"></rect><rect x="186.59" y="374.13" width="58.02" height="1.97" style="fill:#ebebeb"></rect></g><g id="freepik--paper-planes--inject-60"><path d="M187.62,177H186.2v-.75h4V177Zm-6.42-.07-4-.11,0-.75,4,.11Zm14,0,0-.75c1.32,0,2.65-.06,4-.11l0,.75C197.86,176.84,196.53,176.87,195.21,176.9Zm9-.31,0-.75,4-.2,0,.75Zm-32,0c-1.35-.08-2.69-.17-4-.27l.05-.75c1.31.1,2.63.19,4,.27Zm41-.49-.05-.75,4-.28.06.75Zm-50-.22c-1.36-.14-2.68-.29-4-.46l.09-.74c1.29.16,2.62.31,4,.45Zm59-.46-.07-.75,4-.35.07.75Zm-67.92-.69c-1.35-.21-2.67-.44-4-.68l.14-.73c1.28.23,2.59.46,3.93.67Zm76.88-.14-.07-.75,4-.41.08.75Zm9-1-.09-.75,1-.12c1-.11,1.95-.23,2.92-.36l.1.74-2.94.37ZM145.4,173c-1.32-.3-2.63-.62-3.89-1l.19-.73c1.25.34,2.55.65,3.87.95ZM249,172.39l-.12-.74c1.32-.22,2.63-.44,3.94-.69l.14.74Q251,172.06,249,172.39Zm8.88-1.66-.15-.73c1.3-.28,2.6-.56,3.9-.86l.16.73C260.53,170.17,259.23,170.45,257.92,170.73Zm-121.23-.06c-1.29-.41-2.57-.85-3.8-1.3l.26-.7c1.22.44,2.49.88,3.77,1.29Zm130-2-.19-.72c1.29-.33,2.58-.67,3.86-1l.2.72Zm-138.46-1.19c-1.24-.55-2.46-1.13-3.63-1.73l.34-.67c1.16.6,2.37,1.17,3.59,1.71Zm147.14-1.2-.21-.72,3.81-1.16.22.71C277.93,165.52,276.66,165.91,275.38,166.29Zm8.59-2.71-.24-.71c1.27-.43,2.53-.86,3.78-1.3l.25.71Zm-163.74-.28c-1.15-.71-2.28-1.46-3.35-2.23l.44-.61c1.06.76,2.17,1.5,3.31,2.2Zm172.24-2.72-.26-.71c1.25-.46,2.5-.93,3.74-1.41l.27.7C295,159.64,293.73,160.11,292.47,160.58ZM112.94,158q-1.53-1.32-2.94-2.76l.54-.52c.92.93,1.89,1.85,2.89,2.71Zm187.94-.64-.29-.69c1.25-.51,2.48-1,3.7-1.53l.29.69C303.36,156.3,302.12,156.81,300.88,157.31Zm8.3-3.5-.3-.69,3.66-1.62.3.68C311.64,152.73,310.42,153.27,309.18,153.81Zm-202.53-2.37a22,22,0,0,1-2.24-3.39l.66-.35a20.58,20.58,0,0,0,2.17,3.27Zm210.74-1.36-.31-.68c1.21-.57,2.42-1.14,3.61-1.72l.32.68C319.82,148.94,318.62,149.51,317.39,150.08Zm8.12-3.93-.34-.67,3.57-1.81.34.67Zm-222.8-2.9a14.78,14.78,0,0,1-.25-2.74c0-.45,0-.89.06-1.34l.74.06c0,.43-.05.85-.05,1.28a15.05,15.05,0,0,0,.23,2.6ZM333.52,142l-.35-.66c1.2-.64,2.38-1.27,3.53-1.9l.36.66Zm7.92-4.32-.36-.65,3.48-2,.37.65C343.8,136.37,342.64,137,341.44,137.7Zm-237-3.19-.7-.28a24.06,24.06,0,0,1,1.81-3.63l.64.39A23,23,0,0,0,104.41,134.51Zm244.85-1.31-.38-.65c1.19-.7,2.34-1.39,3.43-2.05l.39.64Zm7.71-4.69-.4-.64c1.22-.76,2.35-1.48,3.39-2.14l.4.63C359.33,127,358.2,127.74,357,128.51ZM109.06,127l-.57-.49c.83-1,1.75-2,2.74-3l.53.54C110.78,125.05,109.88,126,109.06,127Zm255.5-3.39-.42-.63c2.16-1.44,3.31-2.26,3.32-2.26l.43.61S366.73,122.16,364.56,123.61Zm-249.11-2.85-.48-.58c1-.82,2.06-1.66,3.17-2.48l.44.6C117.48,119.12,116.43,119.94,115.45,120.76Zm7.22-5.3-.41-.63c1.1-.71,2.25-1.43,3.41-2.13l.39.65C124.9,114,123.76,114.75,122.67,115.46Zm7.73-4.58-.36-.66c1.16-.62,2.36-1.24,3.57-1.84l.33.67C132.74,109.65,131.55,110.27,130.4,110.88Zm8.06-3.94-.3-.69c1.24-.55,2.49-1.07,3.7-1.56l.28.7C140.93,105.87,139.69,106.39,138.46,106.94Z" style="fill:#263238"></path><polygon points="373.49 103.64 367.67 121.02 380.56 110.39 430.41 90.81 373.49 103.64" style="fill:#1E40AF"></polygon><polygon points="373.49 103.64 367.67 121.02 380.56 110.39 430.41 90.81 373.49 103.64" style="opacity:0.1"></polygon><polygon points="382.36 114.36 367.67 121.02 380.56 110.39 382.36 114.36" style="fill:#263238"></polygon><polygon points="380.56 110.39 430.41 90.81 390.2 132.19 380.56 110.39" style="fill:#1E40AF"></polygon><polygon points="373.49 103.64 352.21 90.69 430.41 90.81 373.49 103.64" style="fill:#1E40AF"></polygon><path d="M353.61,312.54c-.47-.46-1-.92-1.44-1.37l.51-.55c.49.46,1,.92,1.45,1.38Z" style="fill:#263238"></path><path d="M347,391.8l0-.75c1.34,0,2.68-.12,4-.25l.07.75C349.75,391.68,348.39,391.76,347,391.8Zm-5-.09c-1.32-.07-2.67-.19-4-.35l.08-.74c1.34.15,2.68.27,4,.35Zm14.07-.93-.16-.73c1.33-.28,2.62-.61,3.85-1l.22.72C358.72,390.16,357.4,390.5,356.06,390.78ZM333,390.61c-1.28-.24-2.61-.52-3.94-.83l.17-.73c1.32.31,2.63.58,3.91.82Zm-8.81-2.12c-1.27-.38-2.56-.79-3.84-1.22l.24-.71c1.27.43,2.55.84,3.81,1.21Zm40.52-.55-.32-.68a32.27,32.27,0,0,0,3.48-1.91l.4.64A35.66,35.66,0,0,1,364.69,387.94Zm-49.08-2.39c-1.24-.49-2.5-1-3.73-1.54l.3-.68c1.22.52,2.47,1,3.7,1.52Zm56.68-2.63-.51-.56a26.18,26.18,0,0,0,2.72-2.86l.58.47A26.72,26.72,0,0,1,372.29,382.92Zm-65-1q-1.79-.85-3.6-1.8l.34-.66c1.21.62,2.4,1.21,3.59,1.78Zm-8-4.18c-1.18-.66-2.33-1.34-3.47-2l.38-.64c1.14.68,2.29,1.35,3.46,2Zm78.62-2-.66-.36a26.07,26.07,0,0,0,1.61-3.61l.7.26A26.83,26.83,0,0,1,377.9,375.75Zm-86.36-2.68c-1.13-.73-2.24-1.48-3.34-2.23l.43-.62c1.09.75,2.2,1.49,3.32,2.22Zm-7.43-5.14c-1.08-.8-2.15-1.61-3.2-2.43l.46-.59c1.05.82,2.11,1.62,3.19,2.41Zm96.72-.8-.73-.13a33.46,33.46,0,0,0,.41-3.94l.75,0A31.25,31.25,0,0,1,380.83,367.13ZM277,362.37c-1-.86-2.06-1.72-3.07-2.59l.48-.57c1,.87,2,1.73,3.07,2.58Zm103.4-4.26c-.13-1.29-.32-2.62-.58-3.94l.74-.14c.26,1.35.46,2.69.58,4Zm-110.24-1.65c-1-.9-2-1.8-3-2.71l.52-.55q1.46,1.37,2.94,2.7Zm-6.59-6.16c-1-.93-1.91-1.87-2.86-2.81l.53-.54c.95.95,1.9,1.88,2.86,2.81Zm115-.95c-.37-1.23-.81-2.5-1.3-3.77l.7-.27c.5,1.29.94,2.57,1.32,3.82Zm-121.44-5.42c-.94-.95-1.87-1.91-2.8-2.87l.53-.52,2.8,2.86ZM375.3,341c-.56-1.17-1.18-2.37-1.83-3.54l.65-.36c.66,1.18,1.28,2.39,1.86,3.58Zm-124.44-3.56-2.77-2.91.55-.51,2.77,2.9Zm120.06-4.27c-.7-1.1-1.45-2.21-2.23-3.32l.62-.43c.78,1.11,1.53,2.24,2.24,3.35Zm-126.28-2.27-2.77-2.9.55-.52,2.76,2.9Zm121.08-5.06c-.8-1-1.65-2.07-2.52-3.11l.57-.48c.88,1,1.74,2.1,2.54,3.13Zm-127.31-1.46c-.93-1-1.85-1.92-2.79-2.88l.54-.53,2.79,2.89ZM359.9,319c-.88-1-1.79-1.94-2.74-2.91l.54-.53c.95,1,1.87,2,2.76,2.93Zm-127.79-1.05-2.83-2.84.53-.53,2.84,2.84Zm-6.4-6.35-2.89-2.77.51-.55,2.9,2.78Zm-6.55-6.19c-1-.9-2-1.8-3-2.7l.5-.56c1,.9,2,1.81,3,2.71Zm-6.71-6c-1-.87-2-1.74-3-2.6l.48-.58c1,.87,2.05,1.75,3.05,2.62Zm-6.89-5.8c-1-.84-2.07-1.67-3.13-2.51l.47-.59c1.06.84,2.1,1.68,3.13,2.52ZM198.48,288c-1-.81-2.12-1.61-3.21-2.41l.45-.6c1.09.8,2.16,1.6,3.21,2.41Zm-7.26-5.34-3.29-2.29.43-.62c1.11.77,2.21,1.53,3.29,2.3Zm-7.44-5.08c-1.11-.73-2.23-1.46-3.36-2.18l.4-.63c1.14.72,2.26,1.45,3.37,2.18Zm-7.61-4.83c-1.13-.69-2.27-1.38-3.43-2.07l.38-.64c1.17.69,2.31,1.38,3.44,2.07Zm-7.76-4.58c-1.15-.66-2.31-1.31-3.49-2l.36-.66c1.18.66,2.35,1.31,3.5,2Zm-7.9-4.34c-1.17-.62-2.35-1.23-3.55-1.85l.34-.66c1.2.61,2.39,1.23,3.56,1.85Zm-8-4.09c-1.18-.59-2.39-1.17-3.6-1.75l.32-.68c1.22.58,2.42,1.17,3.61,1.75Zm-8.14-3.87-3.65-1.65.3-.68q1.86.81,3.66,1.65Zm-8.24-3.65c-1.22-.52-2.45-1-3.7-1.55l.29-.7,3.7,1.56Z" style="fill:#263238"></path><path d="M127.52,248.69l-1.86-.74.27-.7,1.87.74Z" style="fill:#263238"></path><polygon points="129.9 236.16 136.5 254.31 122.63 243.47 69.59 224.24 129.9 236.16" style="fill:#1E40AF"></polygon><polygon points="129.9 236.16 136.5 254.31 122.63 243.47 69.59 224.24 129.9 236.16" style="opacity:0.1"></polygon><polygon points="120.85 247.7 136.5 254.31 122.63 243.47 120.85 247.7" style="fill:#263238"></polygon><polygon points="122.63 243.47 69.59 224.24 113.09 266.69 122.63 243.47" style="fill:#1E40AF"></polygon><polygon points="129.9 236.16 151.94 221.93 69.59 224.24 129.9 236.16" style="fill:#1E40AF"></polygon></g><g id="freepik--speech-bubble--inject-60"><circle cx="322.15" cy="111.5" r="35.4" transform="translate(140.64 400.05) rotate(-76.92)" style="fill:#a6a6a6"></circle><rect x="297.99" y="96.17" width="48.32" height="30.65" style="fill:#fff"></rect><path d="M346.31,96.17c-1.95,1.87-3.94,3.66-5.91,5.5s-4,3.59-6,5.37-4.17,3.69-6.26,5.52l-.19.18-5.57,4.83-.27.22-.27-.22-5.56-4.84-.2-.17q-3.15-2.75-6.27-5.53c-2-1.77-4-3.57-6-5.36s-3.95-3.63-5.9-5.5c2.07,1.6,4.11,3.28,6.17,4.92s4.09,3.34,6.12,5q3.39,2.82,6.79,5.71h0l5.07,4.31c1.69-1.44,3.38-2.89,5.07-4.31v0q3.39-2.88,6.79-5.71,3-2.53,6.12-5C342.2,99.45,344.24,97.77,346.31,96.17Z" style="fill:#dbdbdb"></path><path d="M317.14,112.54l-.06,0-.76.64c-1.21,1-2.45,2-3.72,3-1.54,1.17-3.11,2.3-4.69,3.41s-3.19,2.19-4.82,3.23-3.28,2.07-5,3c1.47-1.29,3-2.48,4.53-3.65s3.12-2.3,4.7-3.42,3.19-2.19,4.82-3.24c1.3-.83,2.62-1.65,4-2.42l.95-.53Z" style="fill:#dbdbdb"></path><path d="M346.19,125.84c-1.7-.94-3.36-2-5-3s-3.23-2.13-4.83-3.23-3.15-2.24-4.69-3.41c-1.26-1-2.5-1.93-3.7-3l-.77-.65-.06,0,.07,0,.95.54c1.35.77,2.66,1.59,4,2.42,1.63,1,3.22,2.14,4.81,3.24s3.16,2.24,4.7,3.42S344.73,124.55,346.19,125.84Z" style="fill:#dbdbdb"></path><circle cx="341.02" cy="96.17" r="7.79" transform="translate(-4.44 174.93) rotate(-28.59)" style="fill:#1E40AF"></circle><path d="M340.17,97.89V91.54a.86.86,0,1,1,1.71,0v6.35a.86.86,0,1,1-1.71,0Zm.86,3.78a.86.86,0,0,1-.86-.87v-.31a.86.86,0,1,1,1.71,0v.31A.85.85,0,0,1,341,101.67Z" style="fill:#fff"></path></g></svg>